<svg xmlns="http://www.w3.org/2000/svg" width="21.5" height="21.5" viewBox="0 0 21.5 21.5">
  <g id="code" transform="translate(0.75 0.75)">
    <g id="code-2" data-name="code" transform="translate(-494 -254)">
      <path id="Vector" d="M0,0A6.293,6.293,0,0,1,2.43,2.15a1.524,1.524,0,0,1,0,1.71A6.349,6.349,0,0,1,0,6" transform="translate(498.89 261)" fill="#fff" stroke="#4c84ff" stroke-linecap="round" stroke-linejoin="round" stroke-width="1.5"/>
      <path id="Vector-2" data-name="Vector" d="M0,0H4" transform="translate(505 267)" fill="#fff" stroke="#4c84ff" stroke-linecap="round" stroke-linejoin="round" stroke-width="1.5"/>
      <path id="Vector-3" data-name="Vector" d="M7,20h6c5,0,7-2,7-7V7c0-5-2-7-7-7H7C2,0,0,2,0,7v6C0,18,2,20,7,20Z" transform="translate(494 254)" fill="none" stroke="#4c84ff" stroke-linecap="round" stroke-linejoin="round" stroke-width="1.5"/>
    </g>
  </g>
</svg>
